<svg width="1611" height="2539" viewBox="0 0 1611 2539" fill="none" xmlns="http://www.w3.org/2000/svg">
<path d="M682.884 1589.34L682.716 1588.65C675.243 1557.95 679.797 1526.72 693.216 1501.17L693.246 1501.1L693.216 1501.08C706.634 1475.51 728.933 1455.57 756.902 1447.33C784.809 1439.09 813.175 1444.11 836.421 1458.88L836.467 1458.91L836.482 1458.88C859.743 1473.64 877.869 1498.17 885.358 1528.93C926.776 1699.02 939.14 1870.14 925.813 2035.85C911.966 2207.81 870.411 2374.12 804.937 2527.63C800.856 2537.22 790.479 2541.37 781.783 2536.88C773.071 2532.41 769.296 2520.99 773.377 2511.41C837.063 2362.09 877.487 2200.16 890.982 2032.55C903.973 1871.08 891.945 1704.43 851.628 1538.86C846.615 1518.32 834.51 1501.94 819.013 1492.09L819.028 1492.07C803.546 1482.25 784.61 1478.94 765.919 1484.44C747.242 1489.95 732.356 1503.25 723.4 1520.32L723.385 1520.3C714.551 1537.15 711.51 1557.7 716.278 1578.04L716.462 1578.71C754.915 1736.6 764.528 1895.55 748.862 2048.73C732.586 2207.84 689.028 2360.77 622.224 2499.92C617.731 2509.3 607.171 2512.9 598.658 2507.96C590.145 2503.03 586.859 2491.41 591.352 2482.05C656.138 2347.11 698.382 2198.79 714.169 2044.52C729.33 1896.2 720.038 1742.27 682.884 1589.34ZM1560.93 1329.78C1566.61 1353.13 1571.98 1376.81 1577.02 1400.75C1582.14 1425.05 1586.76 1448.65 1590.93 1471.61C1592.81 1482.01 1586.65 1492.14 1577.2 1494.22C1567.74 1496.29 1558.53 1489.51 1556.65 1479.11C1552.29 1455.21 1547.75 1431.89 1543 1409.31C1538.17 1386.39 1532.91 1363.17 1527.2 1339.7C1472.21 1113.93 1339.21 934.034 1168.71 825.733C998.225 717.432 790.112 680.693 584.887 741.191C445.946 782.15 326.125 862.439 232.683 968.201C136.015 1077.68 67.5307 1214.55 35.3134 1363.49C33.0821 1373.81 23.6675 1380.2 14.2683 1377.77C4.86901 1375.33 -0.923478 1364.95 1.29261 1354.61C34.9618 1199.03 106.564 1055.97 207.694 941.45C305.416 830.828 430.663 746.874 575.87 704.065C790.357 640.843 1007.92 679.28 1186.2 792.525C1364.45 905.736 1503.46 1093.79 1560.93 1329.78ZM1476.49 1354.66C1491.8 1417.55 1504.39 1480.6 1514.34 1543.64C1524.45 1607.58 1531.83 1671.44 1536.57 1735.05C1537.32 1745.63 1530.13 1754.88 1520.5 1755.7C1510.89 1756.54 1502.48 1748.62 1501.74 1738.05C1497.07 1675.53 1489.83 1612.81 1479.93 1550.11C1470.19 1488.34 1457.8 1426.44 1442.74 1364.6C1394 1164.49 1276.14 1005.02 1124.99 909.031C973.879 813.038 789.44 780.469 607.522 834.09C425.65 887.694 280.688 1017.38 193.435 1183.66C106.274 1349.77 76.6396 1552.45 125.179 1752.39L125.332 1752.98C132.653 1782.99 137.758 1813.21 140.723 1843.37C143.749 1874.02 144.574 1904.61 143.306 1934.89C142.893 1945.47 134.747 1953.67 125.134 1953.22C115.52 1952.77 108.062 1943.82 108.475 1933.23C109.652 1904.98 108.887 1876.31 106.029 1847.42C103.294 1819.63 98.5559 1791.6 91.7701 1763.57L91.5867 1762.9C40.3569 1552.58 71.5043 1339.26 163.25 1164.44C254.981 989.656 407.325 853.326 598.505 796.981C789.669 740.619 983.569 774.887 1142.47 875.823C1301.34 976.743 1425.26 1144.35 1476.49 1354.66ZM1392.03 1379.56C1415.57 1476.18 1432.35 1573.01 1442.71 1669.44C1453.29 1767.79 1457.18 1866.04 1454.77 1963.46C1454.54 1974.04 1446.56 1982.39 1436.95 1982.16C1427.32 1981.91 1419.72 1973.13 1419.94 1962.55C1422.29 1867.37 1418.44 1770.95 1408.02 1673.95C1397.84 1579.27 1381.38 1484.23 1358.3 1389.48C1315.81 1215.02 1213.05 1076.01 1081.29 992.313L1081.31 992.279C949.563 908.628 788.752 880.245 630.157 926.989C471.882 973.649 345.718 1086.32 269.622 1230.81L269.149 1231.77C193.16 1376.52 167.346 1553.22 209.635 1727.5L209.788 1728.09C224.475 1788.44 231.429 1849.24 231.322 1909.12C231.185 1970.89 223.497 2031.63 208.993 2089.8C206.472 2100.01 196.889 2106.03 187.612 2103.25C178.335 2100.48 172.864 2089.94 175.385 2079.73C189.095 2024.73 196.369 1967.39 196.492 1909.12C196.599 1852.97 190.042 1795.72 176.195 1738.63L176.043 1738.01C131.064 1553.34 158.405 1366.03 238.964 1212.53L239.545 1211.49C320.195 1058.49 453.695 939.23 621.139 889.88C788.951 840.412 959.192 870.493 1098.7 959.105L1098.74 959.138L1098.76 959.105C1238.27 1047.72 1347.07 1194.88 1392.03 1379.56ZM1307.59 1404.45C1337.78 1528.39 1356.33 1652.83 1364 1776.32C1371.86 1902.93 1368.24 2028.67 1353.98 2151.95C1352.77 2162.46 1344.04 2169.89 1334.51 2168.56C1324.97 2167.23 1318.21 2157.63 1319.42 2147.14C1333.37 2026.53 1336.89 1903.26 1329.17 1778.87C1321.67 1657.94 1303.46 1535.97 1273.86 1414.39C1237.7 1265.9 1150.4 1147.54 1038.45 1076.13L1037.58 1075.61C925.217 1004.25 788.049 980.039 652.776 1019.91C517.534 1059.77 409.74 1156.22 344.862 1279.86C280.076 1403.31 258.053 1553.95 294.076 1702.55L294.229 1703.19C314.494 1786.39 321.861 1870.12 317.673 1951.77C313.318 2036.42 296.567 2118.76 268.935 2195.87C265.435 2205.74 255.302 2210.63 246.331 2206.76C237.359 2202.91 232.912 2191.76 236.427 2181.89C262.76 2108.4 278.716 2030.06 282.843 1949.67C286.816 1872.29 279.847 1792.84 260.651 1713.8L260.483 1713.13C221.755 1554.11 245.307 1392.81 314.662 1260.64C384.034 1128.46 499.224 1025.39 643.759 982.796C788.294 940.172 934.906 966.099 1055.06 1042.4L1056.01 1043.06C1175.7 1119.46 1268.99 1245.92 1307.59 1404.45ZM1223.14 1429.37C1258.38 1574.04 1276.96 1719.5 1280.17 1863.2C1283.47 2011.3 1270.45 2157.26 1242.56 2298.37C1240.53 2308.74 1231.24 2315.33 1221.81 2313.1C1212.38 2310.86 1206.38 2300.64 1208.42 2290.26C1235.79 2151.78 1248.57 2008.82 1245.34 1864.1C1242.21 1723.69 1223.98 1581.25 1189.4 1439.29C1159.4 1316.14 1086.87 1218 993.854 1158.91L993.87 1158.88C900.886 1099.82 787.361 1079.81 675.411 1112.8C563.766 1145.71 474.756 1225.14 421.035 1326.99L420.561 1327.94C366.947 1430.13 348.714 1554.85 378.562 1677.87L378.669 1678.29C403.718 1781.09 411.207 1884.5 403.214 1984.63C394.9 2088.49 369.866 2189.02 330.358 2281.89C326.293 2291.46 315.916 2295.61 307.204 2291.12C298.508 2286.65 294.733 2275.23 298.814 2265.66C336.502 2177.04 360.421 2080.87 368.383 1981.32C376.025 1885.61 368.903 1786.84 345.046 1688.7L344.923 1688.23C312.446 1554.87 332.192 1419.58 390.376 1308.71L390.987 1307.67C449.248 1197.31 545.594 1111.29 666.378 1075.7C787.575 1039.96 910.499 1061.69 1011.28 1125.7L1011.32 1125.73L1011.34 1125.7C1112.09 1189.7 1190.66 1295.98 1223.14 1429.37ZM1138.69 1454.25C1177.44 1613.33 1194.92 1773.32 1193.09 1930.52C1191.19 2092.96 1168.62 2252.25 1127.55 2404.28C1124.85 2414.45 1115.14 2420.27 1105.9 2417.3C1096.67 2414.32 1091.36 2403.64 1094.08 2393.47C1134.31 2244.55 1156.41 2088.76 1158.26 1930.07C1160.06 1776.53 1142.91 1620.04 1104.96 1464.17C1081.29 1367 1024.22 1289.52 951.015 1242.73L950.144 1242.21C876.784 1195.62 787.269 1179.71 698.947 1205.45C698.336 1205.67 697.724 1205.86 697.082 1206.01C609.203 1232.22 539.144 1294.82 496.748 1375.07L496.274 1376.03C453.924 1456.73 439.466 1555.21 462.865 1652.39C463.048 1652.98 463.201 1653.6 463.324 1654.23C492.347 1773.81 499.973 1894.22 488.77 2010.49L488.694 2011.16C476.987 2131.82 444.968 2248.01 395.557 2354.16C391.186 2363.57 380.686 2367.31 372.128 2362.5C363.569 2357.69 360.176 2346.14 364.547 2336.72C412.033 2234.69 442.798 2122.98 454.031 2006.92L454.077 2006.44C464.806 1894.99 457.516 1779.49 429.716 1664.7C429.456 1663.84 429.226 1662.95 429.074 1662.05C403.275 1554.75 419.277 1446.01 466.09 1356.8L466.686 1355.77C513.743 1266.72 591.536 1197.33 688.997 1168.59L689.273 1168.53C787.086 1139.77 886.29 1157.33 967.628 1209L968.561 1209.64C1049.5 1261.43 1112.59 1347.01 1138.69 1454.25ZM1054.25 1479.14C1095.06 1646.74 1110.92 1815.31 1104.35 1980.06C1097.54 2150.64 1066.65 2317.07 1014.52 2473.98C1011.23 2483.91 1001.22 2489.08 992.188 2485.46C983.141 2481.86 978.449 2470.85 981.735 2460.9C1032.69 2307.57 1062.87 2144.99 1069.52 1978.41C1075.94 1817.63 1060.43 1652.95 1020.51 1489.08C1003.01 1417.23 960.69 1359.96 906.434 1325.49C852.208 1291.05 785.986 1279.37 720.665 1298.62C655.359 1317.87 603.304 1364.43 571.973 1424.12L571.958 1424.11C540.749 1483.59 530.127 1556.2 547.397 1627.86L547.565 1628.5C580.409 1763.34 588.448 1899.08 574.8 2029.83C560.633 2165.53 523.005 2296 465.417 2414.59C460.909 2423.92 450.348 2427.45 441.866 2422.47C433.384 2417.5 430.174 2405.9 434.698 2396.56C490.161 2282.31 526.428 2156.51 540.107 2025.47C553.251 1899.62 545.533 1768.95 514.003 1639.14L513.82 1638.44C493.845 1556.42 506.01 1473.19 541.804 1404.97L541.834 1404.9H541.804C577.597 1336.69 637.049 1283.49 711.647 1261.49C786.215 1239.52 861.898 1252.9 923.918 1292.28C985.907 1331.66 1034.26 1397.09 1054.25 1479.14ZM969.798 1504.04C1011.46 1675.04 1025.52 1847.05 1015.05 2014.36C1004.19 2187.76 966.895 2356.18 906.541 2513.17C902.812 2522.92 892.602 2527.5 883.738 2523.39C874.874 2519.31 870.717 2508.06 874.446 2498.31C933.256 2345.28 969.615 2181 980.222 2011.78C990.446 1848.62 976.707 1680.81 936.068 1513.96C924.911 1468.11 898.043 1431.5 863.61 1409.33L862.723 1408.8C827.862 1386.66 785.283 1379.14 743.284 1391.52C701.606 1403.81 668.334 1433.35 648.176 1471.24L647.702 1472.21C627.665 1510.4 620.834 1556.99 631.853 1602.99L632.021 1603.62C667.952 1751.18 676.633 1899.72 661.487 2042.76C645.73 2191.33 604.236 2334.01 540.841 2463.5C536.271 2472.83 525.695 2476.33 517.213 2471.32C508.73 2466.31 505.551 2454.66 510.106 2445.33C571.423 2320.09 611.557 2182.1 626.779 2038.4C641.436 1900.24 633.076 1756.78 598.459 1614.24L598.275 1613.55C584.536 1557.16 592.896 1499.9 617.517 1452.99L618.113 1451.95C642.796 1405.54 683.419 1369.39 734.267 1354.41C785.542 1339.29 837.552 1348.51 880.207 1375.6L881.155 1376.25C923.337 1403.41 956.196 1448.1 969.798 1504.04ZM767.172 1563.75C764.681 1553.51 770.213 1542.97 779.521 1540.23C788.844 1537.48 798.426 1543.59 800.902 1553.83C841.204 1719.28 852.04 1885.86 836.986 2046.79C821.351 2213.86 777.763 2374.79 710.241 2522.03C705.901 2531.48 695.401 2535.28 686.812 2530.52C678.207 2525.75 674.753 2514.21 679.094 2504.75C744.736 2361.62 787.086 2205.2 802.293 2042.87C816.904 1886.57 806.358 1724.66 767.172 1563.75ZM576.527 56.2914C566.991 57.8551 558.08 50.625 556.659 40.1328C555.222 29.6407 561.809 19.8379 571.346 18.2573C670.734 1.54383 769.938 -3.23144 867.538 3.07394C967.246 9.53066 1065.26 27.6398 1160.03 56.4596C1169.31 59.2844 1174.75 69.8606 1172.2 80.0501C1169.63 90.2564 1160.02 96.2591 1150.74 93.4343C1058.38 65.3543 962.799 47.6992 865.49 41.3938C770.488 35.2566 673.73 39.931 576.527 56.2914ZM398.721 199.92C389.52 203.064 379.724 197.414 376.866 187.292C374.008 177.17 379.143 166.392 388.343 163.248C395.893 160.675 404.376 157.833 414.035 154.723V154.706C423.144 151.78 431.886 149.056 440.108 146.635C591.062 102.127 742.902 88.121 890.233 101.135C1043.08 114.654 1191.16 157.295 1328.35 225.175C1337.13 229.53 1341.05 240.896 1337.09 250.564C1333.14 260.233 1322.8 264.537 1314.01 260.182C1180.48 194.119 1036.34 152.604 887.498 139.455C744.002 126.777 596.121 140.414 449.141 183.744C440.169 186.384 431.763 188.99 423.862 191.529V191.512L423.801 191.529C416.465 193.9 407.998 196.742 398.721 199.92ZM281.956 351.652C273.214 356.041 262.867 351.804 258.878 342.186C254.889 332.551 258.741 321.168 267.483 316.779C298.722 301.125 330.832 286.699 363.753 273.684C396.398 260.788 429.425 249.354 462.743 239.534C630.86 189.982 800.214 180.886 962.187 206.83C1130.5 233.784 1290.9 298.586 1433.74 395.084C1441.96 400.616 1444.56 412.419 1439.55 421.466C1434.53 430.512 1423.79 433.37 1415.57 427.855C1276.72 334.048 1120.83 271.061 957.266 244.848C799.817 219.643 635.2 228.47 471.76 276.66C438.595 286.429 406.5 297.493 375.505 309.751C343.64 322.328 312.431 336.351 281.956 351.652ZM194.596 511.91C186.42 517.476 175.676 514.668 170.617 505.689C165.573 496.676 168.11 484.856 176.287 479.307C223.834 446.939 273.734 418.17 325.728 393.47C376.728 369.24 430.021 348.76 485.362 332.45C666.821 278.964 849.794 276.19 1021.84 316.241C1200.5 357.823 1367.38 445.594 1508.52 570.643C1516.03 577.267 1517.22 589.357 1511.18 597.613C1505.14 605.869 1494.17 607.163 1486.67 600.538C1349.76 479.256 1187.94 394.142 1014.73 353.805C847.898 314.98 670.428 317.67 494.379 369.56C440.796 385.348 389.092 405.24 339.528 428.78C288.711 452.925 240.324 480.787 194.596 511.91ZM127.548 682.878C120.121 689.604 109.132 688.427 103.034 680.255C96.9206 672.084 98.0057 659.994 105.433 653.285C163.403 600.623 226.875 554.316 295.207 515.643C361.735 477.995 432.894 447.477 507.997 425.35C701.025 368.45 895.919 373.629 1075.1 429.755C1260.5 487.849 1429.14 600.505 1561.6 755.416C1568.2 763.133 1567.87 775.273 1560.85 782.537C1553.84 789.801 1542.79 789.431 1536.18 781.713C1408.09 631.914 1244.93 522.923 1065.53 466.73C892.22 412.453 703.715 407.426 517.014 462.476C444.25 483.914 375.429 513.406 311.178 549.776C244.97 587.238 183.547 632.032 127.548 682.878ZM77.3732 869.669C71.0153 877.605 59.996 878.328 52.7975 871.334C45.5991 864.322 44.9266 852.199 51.2998 844.279C113.824 766.513 186.909 698.213 268.981 642.406C348.347 588.432 436.043 546.127 530.616 518.266C735.016 458.003 941.723 473.624 1125.98 549.389C1315.31 627.24 1480.92 768.598 1596.02 956.381C1601.4 965.175 1599.29 977.13 1591.3 983.048C1583.3 988.984 1572.44 986.663 1567.06 977.87C1456.01 796.678 1296.31 660.347 1113.83 585.305C936.19 512.263 736.85 497.248 539.633 555.375C448.239 582.312 363.661 623.086 287.29 675.009C208.153 728.815 137.681 794.694 77.3732 869.669ZM44.3 1083.33C39.4246 1092.51 28.7262 1095.59 20.3968 1090.24C12.0521 1084.89 9.24002 1073.11 14.1154 1063.94C72.3297 954.296 149.877 856.907 243.198 778.535C333.002 703.106 437.418 645.298 553.251 611.165C771.421 546.85 992.433 577.402 1180.04 679.835C1369.96 783.529 1525.7 960.853 1609.68 1187.96C1613.3 1197.8 1608.99 1209.02 1600.07 1212.98C1591.13 1216.97 1580.93 1212.23 1577.33 1202.41C1496.63 984.208 1347.04 813.829 1164.62 714.237C984.333 615.823 771.94 586.465 562.268 648.274C450.898 681.096 350.578 736.617 264.365 809.036C174.805 884.247 100.313 977.836 44.3 1083.33ZM689.273 1168.53C690.694 1168.14 692.115 1167.96 693.506 1167.96L689.273 1168.53Z" fill="#FF2C61"/>
</svg>
