<svg xmlns="http://www.w3.org/2000/svg" viewBox="0 0 625 384" fill-rule="nonzero" stroke-linejoin="round" stroke-miterlimit="2" fill="#f34261" xmlns:v="https://vecta.io/nano"><path d="M17.508 365.686h589.983V17.508H17.508v348.178zm598.737 17.508H8.754c-4.835 0-8.754-3.92-8.754-8.754V8.754C0 3.92 3.919.001 8.754.001h607.491c4.835 0 8.753 3.919 8.753 8.753V374.44c0 4.834-3.918 8.754-8.753 8.754z"/><path d="M312.5 229.115c-7.655 0-15.308-2.346-21.841-7.038L3.647 15.865A8.76 8.76 0 0 1 1.644 3.647a8.76 8.76 0 0 1 12.219-2.002l287.012 206.213a19.91 19.91 0 0 0 23.25 0L611.137 1.645a8.76 8.76 0 0 1 12.218 2.002c2.82 3.927 1.925 9.397-2.002 12.218L334.341 222.077a37.39 37.39 0 0 1-21.841 7.038z"/><path d="M175.904 246.833c-3.017 0-5.954-1.562-7.578-4.361-2.427-4.18-1.005-9.538 3.175-11.965l83.368-48.404c4.18-2.428 9.538-1.007 11.966 3.175s1.006 9.538-3.175 11.965l-83.369 48.405c-1.381.803-2.893 1.185-4.387 1.185zm259.217 0a8.7 8.7 0 0 1-4.845-1.471l-71.64-47.722c-4.023-2.68-5.114-8.115-2.433-12.138a8.76 8.76 0 0 1 12.14-2.433l71.639 47.723c4.023 2.68 5.114 8.115 2.433 12.138-1.687 2.533-4.464 3.903-7.294 3.903z"/></svg>